# File created by Blade
# Date/Time:  Wed Sep 24 20:26:02 2014
# Frame Rate: 120.000 fps
#------------------------------------------------------
:FULLY-SPECIFIED
:DEGREES
781
root -6.102817 33.652119 1.006628 184.593321 -61.490857 -79.453704
Spine -35.623219 16.003774 -1.308854
Head -80.181748 15.878610 5.436618
LeftShoulder -11.183496 26.445455 14.648331
LeftArm -5.134758 41.100236 -80.732385
LeftForeArm 18.758202 -0.000000 12.992763
LeftHand -29.762176 0.000000 -9.553952
LeftHandThumb1 -26.253704 0.000000 33.147579
RightShoulder -17.124400 7.242591 -20.106778
RightArm -39.474119 -25.938177 100.280255
RightForeArm -37.821416 -0.000000 9.028147
RightHand -5.080232 -0.000000 29.837715
RightHandThumb1 -24.326973 -0.000000 -32.862282
LeftUpLeg -101.591563 21.338238 1.474966
LeftLeg -6.615130 -0.000000 0.000000
LeftFoot -6.954105 20.673832 -6.928995
LeftToeBase 3.138104 -0.000000 -0.000000
RightUpLeg 14.388032 -5.292582 -19.587172
RightLeg 23.730886 -0.000000 -0.000000
RightFoot 42.673858 1.249322 2.363113
RightToeBase 18.877629 -0.000000 -0.000000
782
root -6.108143 33.650384 0.993827 184.407845 -61.512938 -79.321022
Spine -35.588484 15.982793 -1.249696
Head -80.186452 15.871322 5.483075
LeftShoulder -11.175911 26.456711 14.654775
LeftArm -5.174797 41.060282 -80.788739
LeftForeArm 18.659362 -0.000000 12.986530
LeftHand -29.580128 -0.000000 -9.490591
LeftHandThumb1 -26.253704 0.000000 33.147579
RightShoulder -17.104915 7.243092 -20.110017
RightArm -39.544626 -25.930653 100.314492
RightForeArm -37.816938 0.000000 9.023284
RightHand -5.058268 -0.000000 29.864915
RightHandThumb1 -24.326973 -0.000000 -32.862282
LeftUpLeg -101.473331 21.350416 1.634871
LeftLeg -6.651519 -0.000000 0.000000
LeftFoot -6.945329 20.791966 -6.867418
LeftToeBase 3.203979 -0.000000 -0.000000
RightUpLeg 14.376470 -5.366276 -19.564205
RightLeg 23.680309 -0.000000 -0.000000
RightFoot 42.637272 1.124496 2.468955
RightToeBase 19.025136 -0.000000 -0.000000
783
root -6.112158 33.650125 0.984424 184.321675 -61.522274 -79.277473
Spine -35.573216 15.973765 -1.262278
Head -80.185758 15.846507 5.537481
LeftShoulder -11.163977 26.474337 14.684437
LeftArm -5.184333 41.056273 -80.821021
LeftForeArm 18.614899 0.000000 12.987549
LeftHand -29.510653 -0.000000 -9.533030
LeftHandThumb1 -26.253704 0.000000 33.147579
RightShoulder -17.089372 7.244301 -20.100678
RightArm -39.619448 -25.952366 100.396579
RightForeArm -37.728744 -0.000000 8.983332
RightHand -5.008456 0.000000 29.944771
RightHandThumb1 -24.326973 -0.000000 -32.862282
LeftUpLeg -101.389744 21.351680 1.690949
LeftLeg -6.689969 -0.000000 0.000000
LeftFoot -6.952850 20.856656 -6.798421
LeftToeBase 3.347352 -0.000000 -0.000000
RightUpLeg 14.330439 -5.478349 -19.600591
RightLeg 23.672455 -0.000000 -0.000000
RightFoot 42.609723 1.120543 2.488223
RightToeBase 19.014720 -0.000000 -0.000000
784
root -6.116885 33.647824 0.975517 184.208920 -61.520355 -79.229595
Spine -35.532312 15.977202 -1.250607
Head -80.188555 15.805479 5.592423
LeftShoulder -11.171188 26.509509 14.675233
LeftArm -5.166394 41.122835 -80.843674
LeftForeArm 18.687884 -0.000000 12.939850
LeftHand -29.520612 -0.000000 -9.405519
LeftHandThumb1 -26.253704 0.000000 33.147579
RightShoulder -17.065459 7.256391 -20.097523
RightArm -39.695676 -25.994565 100.493000
RightForeArm -37.633197 -0.000000 8.931020
RightHand -5.011916 -0.000000 29.973441
RightHandThumb1 -24.326973 -0.000000 -32.862282
LeftUpLeg -101.288273 21.354344 1.716443
LeftLeg -6.745579 -0.000000 0.000000
LeftFoot -6.959407 20.882774 -6.721109
LeftToeBase 3.310875 -0.000000 -0.000000
RightUpLeg 14.289608 -5.545001 -19.628298
RightLeg 23.712206 -0.000000 -0.000000
RightFoot 42.567355 1.074640 2.581163
RightToeBase 18.904515 -0.000000 -0.000000
785
root -6.121972 33.646633 0.964500 184.107787 -61.507037 -79.194549
Spine -35.488212 15.975905 -1.254949
Head -80.195463 15.777116 5.656095
LeftShoulder -11.171413 26.629967 14.650456
LeftArm -5.043055 41.056766 -80.755540
LeftForeArm 18.629100 -0.000000 12.958971
LeftHand -29.648568 -0.000000 -9.447048
LeftHandThumb1 -26.253704 0.000000 33.147579
RightShoulder -17.042821 7.284140 -20.079342
RightArm -39.746820 -25.913011 100.474523
RightForeArm -37.702627 -0.000000 8.946209
RightHand -4.998946 -0.000000 30.140203
RightHandThumb1 -24.326973 -0.000000 -32.862282
LeftUpLeg -101.212613 21.357732 1.669126
LeftLeg -6.793368 -0.000000 0.000000
LeftFoot -6.952735 20.843342 -6.568225
LeftToeBase 3.366345 -0.000000 -0.000000
RightUpLeg 14.258385 -5.642599 -19.673187
RightLeg 23.709886 -0.000000 -0.000000
RightFoot 42.659727 1.094268 2.554239
RightToeBase 19.011927 -0.000000 -0.000000
786
root -6.127501 33.644693 0.955678 184.022398 -61.521380 -79.178568
Spine -35.442754 15.947657 -1.257756
Head -80.201758 15.765764 5.719496
LeftShoulder -11.191953 26.656736 14.631668
LeftArm -5.035952 41.082504 -80.750095
LeftForeArm 18.673466 -0.000000 12.956627
LeftHand -29.712130 -0.000000 -9.441201
LeftHandThumb1 -26.253704 0.000000 33.147579
RightShoulder -17.118492 7.204554 -20.096514
RightArm -39.607582 -26.041905 100.546107
RightForeArm -37.607298 -0.000000 8.751130
RightHand -5.006053 -0.000000 30.104558
RightHandThumb1 -24.326973 -0.000000 -32.862282
LeftUpLeg -101.140938 21.322921 1.613239
LeftLeg -6.839579 -0.000000 0.000000
LeftFoot -6.934344 20.817660 -6.419896
LeftToeBase 3.384744 -0.000000 -0.000000
RightUpLeg 14.233443 -5.752015 -19.722563
RightLeg 23.752974 -0.000000 -0.000000
RightFoot 42.652043 1.182610 2.538659
RightToeBase 19.015966 -0.000000 -0.000000
787
root -6.132532 33.643488 0.945854 183.965586 -61.496253 -79.198328
Spine -35.398766 15.965319 -1.295534
Head -80.201568 15.734346 5.774008
LeftShoulder -11.169334 26.680408 14.627698
LeftArm -5.038715 41.057196 -80.744081
LeftForeArm 18.720774 -0.000000 12.966447
LeftHand -29.821608 -0.000000 -9.446482
LeftHandThumb1 -26.253704 0.000000 33.147579
RightShoulder -17.142124 7.222269 -20.106661
RightArm -39.592496 -25.937885 100.517507
RightForeArm -37.633454 -0.000000 8.715178
RightHand -5.021118 -0.000000 30.200677
RightHandThumb1 -24.326973 -0.000000 -32.862282
LeftUpLeg -101.071898 21.327278 1.549117
LeftLeg -6.836113 -0.000000 0.000000
LeftFoot -6.964292 20.745735 -6.259862
LeftToeBase 3.561895 -0.000000 -0.000000
RightUpLeg 14.204528 -5.798627 -19.779267
RightLeg 23.768074 -0.000000 -0.000000
RightFoot 42.691148 1.225951 2.480774
RightToeBase 18.923783 -0.000000 -0.000000
788
root -6.138371 33.641408 0.936078 183.855328 -61.498556 -79.164710
Spine -35.342781 15.958948 -1.284687
Head -80.192694 15.731028 5.777924
LeftShoulder -11.159665 26.657431 14.618410
LeftArm -5.108815 41.075827 -80.794411
LeftForeArm 18.735096 -0.000000 12.959814
LeftHand -29.892740 -0.000000 -9.376042
LeftHandThumb1 -26.253704 0.000000 33.147579
RightShoulder -17.173305 7.204189 -20.110338
RightArm -39.513326 -25.813723 100.415117
RightForeArm -37.736656 -0.000000 8.697976
RightHand -5.044571 -0.000000 30.267414
RightHandThumb1 -24.326973 -0.000000 -32.862282
LeftUpLeg -101.016585 21.301722 1.513624
LeftLeg -6.820833 -0.000000 0.000000
LeftFoot -6.971109 20.747412 -6.010878
LeftToeBase 3.648757 -0.000000 -0.000000
RightUpLeg 14.203500 -5.830126 -19.803375
RightLeg 23.753695 -0.000000 -0.000000
RightFoot 42.708828 1.253111 2.565556
RightToeBase 19.129003 -0.000000 -0.000000
